# xmcd
# 
# Track frame offsets:
#     150
#     23773
#     50875
#     75439
#     96279
#     113790
#     127938
#     153515
#     172602
#     192850
#     228576
# 
# Disc length: 3296
# 
# Revision: 2
# Processed by: cddbd v1.5.2PL0 Copyright (c) Steve Scherf et al.
# Submitted via: fre:ac v1.0.31
# 
DISCID=7f0cde0b
DTITLE=Savoy Brown - Witchy Feelin'
DYEAR=2017
DGENRE=Blues
TTITLE0=Why Did You Hoodoo Me
TTITLE1=Livin' On The Bayou
TTITLE2=I Can't Stop The Blues
TTITLE3=Witchy Feelin'
TTITLE4=Guitar Slinger
TTITLE5=Vintage Man
TTITLE6=Standing In A Doorway
TTITLE7=Memphis Blues
TTITLE8=Can't Find Paradise
TTITLE9=Thunder, Lightning and Rain
TTITLE10=Close To Midnight
EXTD=
EXTT0=
EXTT1=
EXTT2=
EXTT3=
EXTT4=
EXTT5=
EXTT6=
EXTT7=
EXTT8=
EXTT9=
EXTT10=
PLAYORDER=
